<?xml version="1.0" encoding="UTF-8"?>
<svg version="1.1" xmlns="http://www.w3.org/2000/svg" width="1024" height="1024">
<path d="M0 0 C337.92 0 675.84 0 1024 0 C1024 337.92 1024 675.84 1024 1024 C686.08 1024 348.16 1024 0 1024 C0 686.08 0 348.16 0 0 Z " fill="#FEFEFE" transform="translate(0,0)"/>
<path d="M0 0 C4.97309629 2.93738024 8.73059053 6.46911533 10.58984375 12.046875 C11.48492905 20.56297225 10.42511053 26.05598436 5.58984375 33.046875 C5.06648437 33.85511719 4.543125 34.66335938 4.00390625 35.49609375 C1.90582503 38.70734907 -0.2477893 41.8787918 -2.41015625 45.046875 C-2.96058594 45.85415039 -3.51101563 46.66142578 -4.078125 47.49316406 C-6.64385545 51.25559715 -9.21018441 55.01761791 -11.77880859 58.77807617 C-15.35315194 64.01450248 -18.90691304 69.26263678 -22.41015625 74.546875 C-26.96131715 81.40728299 -31.59745831 88.20836321 -36.24121094 95.00634766 C-39.90609418 100.37232778 -43.56421553 105.74276091 -47.2109375 111.12109375 C-47.82220238 112.02257141 -47.82220238 112.02257141 -48.44581604 112.94226074 C-50.0934861 115.37254718 -51.74093562 117.80298232 -53.38760376 120.23394775 C-57.24609177 125.92996328 -61.1058122 131.62441482 -65.02734375 137.27734375 C-65.54586914 138.02516113 -66.06439453 138.77297852 -66.59863281 139.54345703 C-67.52172067 140.87098413 -68.44789915 142.19637045 -69.37792969 143.51904297 C-71.12491264 146.02970704 -72.43598216 148.12435274 -73.41015625 151.046875 C-72.24739583 151.72005208 -71.08463542 152.39322917 -69.921875 153.06640625 C-69.16237549 153.50621826 -68.40287598 153.94603027 -67.62036133 154.39916992 C-65.91612672 155.38562373 -64.21152743 156.37144775 -62.5065918 157.35668945 C-58.15599361 159.87193504 -53.81078981 162.39529273 -49.48046875 164.9453125 C-42.00987245 169.33372546 -34.51824379 173.63469061 -26.78515625 177.546875 C-26.17067627 177.86100342 -25.55619629 178.17513184 -24.9230957 178.4987793 C-17.03894035 182.40080064 -9.81570778 184.59961737 -0.97265625 184.484375 C-0.14008301 184.47535156 0.69249023 184.46632813 1.55029297 184.45703125 C11.60614507 184.17382321 18.32675074 181.23803142 25.6171875 174.23046875 C35.11562229 163.71635974 36.03758014 149.71603993 35.94824219 136.15112305 C36.06197382 129.21973506 38.27661328 124.47020798 43.10327148 119.4831543 C47.73717432 115.37362376 51.30975977 114.66683169 57.4375 114.76953125 C62.72771961 115.45121109 67.00517977 118.04949199 70.46484375 122.046875 C74.15631839 127.25836862 74.91897493 130.77862139 74.83984375 137.171875 C74.83307617 137.96303711 74.82630859 138.75419922 74.81933594 139.56933594 C74.40778447 163.77430469 69.31317451 187.90446056 51.4609375 205.46484375 C33.79766848 221.34977004 12.92698762 225.41295067 -10.19335938 224.328125 C-24.68146189 223.06140565 -37.852231 217.00180947 -50.41015625 210.046875 C-52.02143161 209.17708036 -53.63344719 208.30865596 -55.24609375 207.44140625 C-63.40033481 203.03054608 -71.47479508 198.48527638 -79.47265625 193.796875 C-80.51607178 193.18561768 -80.51607178 193.18561768 -81.58056641 192.56201172 C-84.70010829 190.71636395 -87.7711054 188.83422077 -90.76953125 186.796875 C-91.7440625 186.136875 -92.71859375 185.476875 -93.72265625 184.796875 C-94.54378906 184.21421875 -95.36492187 183.6315625 -96.2109375 183.03125 C-98.33108277 181.81177572 -98.33108277 181.81177572 -100.39453125 182.53515625 C-103.10151479 184.5653939 -105.13401525 186.92454052 -107.34765625 189.484375 C-121.42262836 205.26554916 -141.35384978 220.79118612 -162.97387695 223.3503418 C-165.56474019 223.4825768 -168.12867397 223.5149974 -170.72265625 223.484375 C-171.63837402 223.47607666 -172.5540918 223.46777832 -173.49755859 223.45922852 C-185.92834024 223.15114511 -195.40260217 219.36008759 -205.41015625 212.046875 C-206.24417969 211.43972656 -207.07820313 210.83257813 -207.9375 210.20703125 C-215.75399788 203.3784004 -220.52638551 193.84532255 -223.41015625 184.046875 C-223.82265625 182.95375 -224.23515625 181.860625 -224.66015625 180.734375 C-227.65277373 166.02067238 -224.24909722 151.66774074 -216.41015625 139.046875 C-206.95619084 126.60182449 -194.79999114 118.25781866 -179.41015625 115.046875 C-157.29941199 113.46831374 -139.98281499 117.51119113 -119.83642578 126.03125 C-115.71571142 127.75616163 -111.56245177 129.3997558 -107.41015625 131.046875 C-107.11375244 130.27214844 -106.81734863 129.49742187 -106.51196289 128.69921875 C-105.29214671 125.76279442 -103.76156246 123.58328403 -101.84765625 121.046875 C-91.89341323 107.6901372 -82.82325218 93.70795567 -73.62768555 79.82519531 C-68.01463119 71.35477525 -62.4055655 62.91958269 -56.36157227 54.74804688 C-52.20197041 48.99027947 -48.33150503 43.03070065 -44.41015625 37.109375 C-43.55100274 35.8156081 -42.6916285 34.52198774 -41.83203125 33.22851562 C-40.15559711 30.70539859 -38.48048979 28.18140898 -36.80639648 25.65673828 C-33.90020581 21.27568869 -30.98022626 16.90388832 -28.05883789 12.53295898 C-27.04255944 11.00048993 -26.03992237 9.45874619 -25.06030273 7.90258789 C-19.31583319 -0.88817374 -9.9446202 -3.93271853 0 0 Z " fill="#61BA60" transform="translate(587.41015625,469.953125)"/>
<path d="M0 0 C1.22847656 0.44859375 2.45695312 0.8971875 3.72265625 1.359375 C19.43829232 7.61201309 33.84149301 17.28970518 48.29980469 25.984375 C51.21285993 27.73239176 54.13636171 29.46150815 57.0625 31.1875 C57.91803467 31.71045654 58.77356934 32.23341309 59.6550293 32.7722168 C60.44047119 33.23281494 61.22591309 33.69341309 62.03515625 34.16796875 C62.7094165 34.57297607 63.38367676 34.9779834 64.07836914 35.39526367 C66.03349516 36.22098964 66.03349516 36.22098964 68.08129883 35.27319336 C70.97045015 33.35603798 73.24490192 30.87009718 75.625 28.375 C80.77240218 23.11789523 86.07663208 18.38471529 92 14 C93.44246094 12.90751953 93.44246094 12.90751953 94.9140625 11.79296875 C110.89161207 0.15671367 128.87090846 -8.13048797 149 -6 C163.16055307 -3.33895647 175.27333461 4.04952942 183.90234375 15.53125 C192.85867631 28.71012413 196.22724132 44.38755391 193.31640625 60.1171875 C190.37107314 73.87072537 183.70270156 85.54395331 172.24609375 94.04296875 C155.75361465 104.34253293 136.25573497 105.67464802 117.45556641 101.70996094 C103.2863195 98.2464315 88.96774734 92.66314258 76 86 C75.73703125 86.72058594 75.4740625 87.44117188 75.203125 88.18359375 C73.96456381 91.08295289 72.51757847 93.45340047 70.75 96.0625 C70.04230469 97.10792969 69.33460938 98.15335937 68.60546875 99.23046875 C64.84824129 104.69240569 61.01415419 110.10109864 57.19946289 115.52294922 C53.18174952 121.25428025 49.35113556 127.05757987 45.609375 132.97265625 C41.31879697 139.66914931 36.77617115 146.20219778 32.28979492 152.76831055 C26.13956263 161.77158905 20.09293595 170.8407153 14.0703125 179.9296875 C10.06812526 185.96744413 6.04316364 191.98960938 2 198 C1.46955078 198.78987305 0.93910156 199.57974609 0.39257812 200.39355469 C-0.93327214 202.35534534 -2.27445903 204.30515687 -3.625 206.25 C-4.33914063 207.28640625 -5.05328125 208.3228125 -5.7890625 209.390625 C-9.38305106 213.63229348 -13.57329283 216.62872267 -19.19921875 217.23828125 C-25.31768208 217.42077859 -30.04519815 216.78767075 -35 213 C-39.17076278 208.43498602 -41.14212858 204.15820105 -41.4375 197.9375 C-41.52837891 196.62072266 -41.52837891 196.62072266 -41.62109375 195.27734375 C-40.02567086 186.85872863 -33.23804066 179.26441368 -28.4375 172.3125 C-27.1075378 170.37406495 -25.77814403 168.43523982 -24.44921875 166.49609375 C-23.37873291 164.93544189 -23.37873291 164.93544189 -22.28662109 163.34326172 C-18.08266833 157.20424653 -13.9199176 151.03715341 -9.75 144.875 C-7.94289128 142.20560528 -6.13552339 139.53638609 -4.328125 136.8671875 C-3.88062393 136.20625595 -3.43312286 135.5453244 -2.97206116 134.86436462 C1.12846356 128.80877253 5.234515 122.75694059 9.34197998 116.70605469 C11.65783986 113.29421074 13.97289633 109.88182155 16.28811646 106.46954346 C18.47555803 103.24582189 20.66367912 100.0225634 22.85253906 96.79980469 C25.30191266 93.19342023 27.75007627 89.58621695 30.19750977 85.97851562 C31.14384908 84.58401254 32.09062157 83.18980331 33.0378418 81.79589844 C34.35187155 79.86208737 35.66439123 77.92725993 36.9765625 75.9921875 C37.37038116 75.41338837 37.76419983 74.83458923 38.16995239 74.23825073 C39.5532672 72.19578314 40.8954148 70.20917041 42 68 C35.78285563 64.30390673 29.55449507 60.62723761 23.3203125 56.95996094 C19.97774697 54.98686417 16.64519512 52.99752471 13.3125 51.0078125 C-11.09827605 35.92904243 -11.09827605 35.92904243 -39 34 C-49.17365959 37.17280231 -56.9080401 43.61316564 -61.875 53 C-66.11886109 61.78449568 -66.33853167 70.30806057 -66.390625 79.8671875 C-66.56116391 86.70769255 -67.67410922 92.31885971 -72.37597656 97.52294922 C-77.32386507 101.98571901 -82.54040544 103.44841145 -89.05078125 103.25 C-94.6789922 102.52814529 -98.42250829 99.1576255 -102 95 C-106.06091922 89.10035948 -105.53623588 82.70465575 -105.5 75.8125 C-105.49427979 74.5632373 -105.48855957 73.31397461 -105.48266602 72.02685547 C-105.10805339 52.41329877 -99.2894175 33.8097059 -86 19 C-85.23300781 18.11699219 -84.46601563 17.23398437 -83.67578125 16.32421875 C-61.77358968 -7.34586273 -29.09552833 -11.40897783 0 0 Z " fill="#37B2CE" transform="translate(468,337)"/>
<path d="M0 0 C2.03027344 0.86962891 2.03027344 0.86962891 5.03027344 2.86962891 C2.40895037 10.73359812 -9.03756438 16.65117029 -15.96972656 20.86962891 C-16.61296875 21.27181641 -17.25621094 21.67400391 -17.91894531 22.08837891 C-23.27767692 25.13187759 -28.80267511 26.39848942 -34.96972656 25.86962891 C-40.29508903 23.8813768 -43.46653398 20.98000427 -45.96972656 15.86962891 C-46.81579965 11.05553865 -47.09542454 6.07847271 -44.83300781 1.63916016 C-33.11848703 -12.78107671 -14.50478646 -5.33666672 0 0 Z " fill="#FAFDFA" transform="translate(446.9697265625,629.13037109375)"/>
<path d="M0 0 C3.93792318 2.56821077 6.74612583 5.61725165 8.875 9.875 C9.27145992 15.72278387 8.8019918 19.62660091 5.875 24.875 C2.19947921 28.76055055 -1.87882519 30.3066644 -7.125 30.875 C-19.57799372 31.03981903 -32.03022359 27.32506561 -43.125 21.875 C-41.56495 17.60486315 -38.34984829 15.2636461 -34.875 12.5625 C-34.26035889 12.08119629 -33.64571777 11.59989258 -33.01245117 11.10400391 C-24.01160471 4.27136135 -11.53556516 -4.15280346 0 0 Z " fill="#F7FDFD" transform="translate(615.125,371.125)"/>
<path d="M0 0 C8.90015699 3.92539675 13.53127902 13.39126521 17 22 C21.97319799 37.16264501 21.36738949 53.46614337 14.609375 67.98828125 C11.63225002 73.15124273 8.01078011 77.60724083 4 82 C3.67 81.01 3.34 80.02 3 79 C3.66 79 4.32 79 5 79 C5 78.34 5 77.68 5 77 C5.66 77 6.32 77 7 77 C7 76.01 7 75.02 7 74 C7.66 74 8.32 74 9 74 C9.144375 73.38125 9.28875 72.7625 9.4375 72.125 C10 70 10 70 11 68 C11.66 68 12.32 68 13 68 C17.680944 51.98469475 19.14532 35.12200268 14 19 C13.01 19 12.02 19 11 19 C10.85304688 18.43152344 10.70609375 17.86304688 10.5546875 17.27734375 C8.84473424 11.3907805 6.49645097 7.20837751 2 3 C1.34 2.67 0.68 2.34 0 2 C0 1.34 0 0.68 0 0 Z " fill="#58B4C6" transform="translate(642,344)"/>
<path d="M0 0 C0.66 0 1.32 0 2 0 C0.67119167 3.65706225 -0.9530091 6.61253794 -3.203125 9.78125 C-3.84717285 10.69567871 -4.4912207 11.61010742 -5.15478516 12.55224609 C-5.84620605 13.52500488 -6.53762695 14.49776367 -7.25 15.5 C-14.48314893 25.7798936 -21.51785798 36.17473563 -28.45019531 46.65917969 C-30.95724408 50.44581856 -33.47856183 54.22293313 -36 58 C-37 55 -37 55 -36 52 C-35.34 52 -34.68 52 -34 52 C-33.855625 51.38125 -33.71125 50.7625 -33.5625 50.125 C-33 48 -33 48 -32 46 C-31.34 46 -30.68 46 -30 46 C-29.896875 45.443125 -29.79375 44.88625 -29.6875 44.3125 C-28.85821592 41.5230899 -27.65700944 39.3860936 -26 37 C-25.34 37 -24.68 37 -24 37 C-24 36.34 -24 35.68 -24 35 C-23.34 35 -22.68 35 -22 35 C-22 33.68 -22 32.36 -22 31 C-21.34 31 -20.68 31 -20 31 C-20 30.34 -20 29.68 -20 29 C-19.34 29 -18.68 29 -18 29 C-18 28.01 -18 27.02 -18 26 C-17.34 26 -16.68 26 -16 26 C-16 25.01 -16 24.02 -16 23 C-15.34 23 -14.68 23 -14 23 C-14 22.01 -14 21.02 -14 20 C-13.34 20 -12.68 20 -12 20 C-12 19.01 -12 18.02 -12 17 C-11.34 17 -10.68 17 -10 17 C-10 16.01 -10 15.02 -10 14 C-9.34 14 -8.68 14 -8 14 C-7.855625 13.38125 -7.71125 12.7625 -7.5625 12.125 C-7 10 -7 10 -6 8 C-5.34 8 -4.68 8 -4 8 C-3.34 6.02 -2.68 4.04 -2 2 C-1.34 2 -0.68 2 0 2 C0 1.34 0 0.68 0 0 Z " fill="#DAFAFC" transform="translate(479,448)"/>
<path d="M0 0 C0.66 0 1.32 0 2 0 C0.95274513 2.11390334 -0.1129407 4.21284979 -1.21875 6.296875 C-1.6415625 7.10640625 -2.064375 7.9159375 -2.5 8.75 C-2.9228125 9.54921875 -3.345625 10.3484375 -3.78125 11.171875 C-7.28825099 19.30991576 -7.34308682 27.14393213 -7.390625 35.8671875 C-7.56224582 42.75108909 -8.7185841 48.28366259 -13.37597656 53.55834961 C-16.6952518 56.61219095 -19.54737387 57.68195528 -24 58 C-19.375 54 -19.375 54 -16 54 C-16 53.34 -16 52.68 -16 52 C-15.34 52 -14.68 52 -14 52 C-14 51.34 -14 50.68 -14 50 C-13.34 50 -12.68 50 -12 50 C-12 48.68 -12 47.36 -12 46 C-11.34 46 -10.68 46 -10 46 C-10.02094727 45.34104736 -10.04189453 44.68209473 -10.06347656 44.00317383 C-10.94370107 12.10060661 -10.94370107 12.10060661 0 0 Z " fill="#4CADC2" transform="translate(409,381)"/>
<path d="M0 0 C0.86471924 -0.0093457 1.72943848 -0.01869141 2.62036133 -0.02832031 C7.04184276 -0.00587405 10.54445038 0.17084496 14.5625 2.25 C11.60375948 3.11083954 9.04031536 3.34739075 5.96484375 3.27734375 C5.08610596 3.26356689 4.20736816 3.24979004 3.30200195 3.2355957 C2.37734131 3.21972412 1.45268066 3.20385254 0.5 3.1875 C-10.86687985 3.09758592 -20.62901962 4.73314088 -31.4375 8.25 C-31.4375 7.59 -31.4375 6.93 -31.4375 6.25 C-21.2683128 0.95996827 -11.30257666 0.08571061 0 0 Z " fill="#DDFCFE" transform="translate(438.4375,328.75)"/>
<path d="M0 0 C0.66 0.66 1.32 1.32 2 2 C-0.92716987 1.45115565 -3.73702947 0.78999052 -6.60546875 -0.02734375 C-11.20647199 -1.18312082 -15.59007129 -1.26183815 -20.3125 -1.1875 C-21.10978516 -1.18685547 -21.90707031 -1.18621094 -22.72851562 -1.18554688 C-26.06050698 -1.16032575 -28.81966149 -1.06011284 -32 0 C-33.7634375 0.495 -33.7634375 0.495 -35.5625 1 C-38.82416864 1.83726246 -38.82416864 1.83726246 -41 3 C-43.125 2.0625 -43.125 2.0625 -45 1 C-29.63531367 -4.72089385 -15.68064515 -6.77680879 0 0 Z " fill="#57B0C3" transform="translate(630,335)"/>
<path d="M0 0 C0.66 0 1.32 0 2 0 C0.65608349 3.68888432 -1.00465786 6.72011977 -3.23046875 9.94921875 C-3.86919922 10.88056641 -4.50792969 11.81191406 -5.16601562 12.77148438 C-5.83310547 13.73376953 -6.50019531 14.69605469 -7.1875 15.6875 C-7.83525391 16.63044922 -8.48300781 17.57339844 -9.15039062 18.54492188 C-13.39914252 24.72068013 -17.69268559 30.86498505 -22 37 C-22.33 35.68 -22.66 34.36 -23 33 C-22.34 33 -21.68 33 -21 33 C-21 32.01 -21 31.02 -21 30 C-20.34 30 -19.68 30 -19 30 C-18.8453125 29.13375 -18.8453125 29.13375 -18.6875 28.25 C-17.89103535 25.64338842 -16.80934723 24.0264689 -15 22 C-14.34 22 -13.68 22 -13 22 C-13 21.01 -13 20.02 -13 19 C-12.34 19 -11.68 19 -11 19 C-10.7834375 18.071875 -10.7834375 18.071875 -10.5625 17.125 C-10 15 -10 15 -9 13 C-8.34 13 -7.68 13 -7 13 C-6.855625 12.38125 -6.71125 11.7625 -6.5625 11.125 C-6 9 -6 9 -5 7 C-4.34 7 -3.68 7 -3 7 C-3 6.01 -3 5.02 -3 4 C-2.34 4 -1.68 4 -1 4 C-0.67 2.68 -0.34 1.36 0 0 Z " fill="#D9FAFC" transform="translate(504,411)"/>
<path d="M0 0 C4.62 0 9.24 0 14 0 C14 0.99 14 1.98 14 3 C14.90492188 2.98259766 14.90492188 2.98259766 15.828125 2.96484375 C17.02695312 2.95130859 17.02695312 2.95130859 18.25 2.9375 C19.43335938 2.92009766 19.43335938 2.92009766 20.640625 2.90234375 C23 3 23 3 24.82226562 3.5 C27.34568153 4.07936724 29.61458374 4.11270591 32.203125 4.09765625 C33.1828125 4.09443359 34.1625 4.09121094 35.171875 4.08789062 C36.18765625 4.07951172 37.2034375 4.07113281 38.25 4.0625 C39.28125 4.05798828 40.3125 4.05347656 41.375 4.04882812 C43.91672573 4.03706088 46.45833319 4.02062011 49 4 C49 4.33 49 4.66 49 5 C32.58877518 8.62656717 15.79424649 5.89202325 0 1 C0 0.67 0 0.34 0 0 Z " fill="#5AB3C5" transform="translate(573,434)"/>
<path d="M0 0 C2.97 0 5.94 0 9 0 C9 0.66 9 1.32 9 2 C12.65456815 2.75241109 16.31733897 3.40049704 20 4 C20 4.66 20 5.32 20 6 C20.969375 5.979375 21.93875 5.95875 22.9375 5.9375 C26 6 26 6 27 7 C28.77869726 7.15764405 30.56318476 7.25100677 32.34765625 7.31640625 C33.42724609 7.35830078 34.50683594 7.40019531 35.61914062 7.44335938 C37.32360352 7.50233398 37.32360352 7.50233398 39.0625 7.5625 C40.20267578 7.60568359 41.34285156 7.64886719 42.51757812 7.69335938 C45.34492195 7.79982839 48.17235738 7.90184207 51 8 C51 8.33 51 8.66 51 9 C32.66836376 9.8897745 16.99102884 8.11412996 0 1 C0 0.67 0 0.34 0 0 Z " fill="#7FBC7F" transform="translate(548,685)"/>
<path d="M0 0 C0.33 0 0.66 0 1 0 C1.01458252 0.88260498 1.02916504 1.76520996 1.04418945 2.67456055 C1.10542067 5.96438643 1.1796033 9.2533993 1.26245117 12.54272461 C1.29560557 13.96351202 1.32366692 15.38442813 1.34643555 16.80541992 C1.38015847 18.8539082 1.43247745 20.9012272 1.48828125 22.94921875 C1.51446533 24.17987061 1.54064941 25.41052246 1.56762695 26.6784668 C2.29457866 32.26298284 5.48508352 35.75785942 9 40 C4.11234467 38.64231796 2.47408902 36.32965579 0 32 C-1.11301484 28.66095549 -1.12936638 26.13370628 -1.1328125 22.6171875 C-1.13474609 20.74353516 -1.13474609 20.74353516 -1.13671875 18.83203125 C-1.13285156 17.52621094 -1.12898438 16.22039062 -1.125 14.875 C-1.12886719 13.56144531 -1.13273437 12.24789063 -1.13671875 10.89453125 C-1.13542969 9.64800781 -1.13414062 8.40148437 -1.1328125 7.1171875 C-1.13168457 5.96847168 -1.13055664 4.81975586 -1.12939453 3.63623047 C-1 1 -1 1 0 0 Z " fill="#50AEC0" transform="translate(364,397)"/>
<path d="M0 0 C0.66 0.33 1.32 0.66 2 1 C1.51893799 1.72050537 1.03787598 2.44101074 0.54223633 3.18334961 C-3.04123403 8.55401363 -6.61716693 13.92923496 -10.17578125 19.31640625 C-11.5546875 21.3984375 -12.93359375 23.48046875 -14.3125 25.5625 C-15.3653418 27.16061523 -15.3653418 27.16061523 -16.43945312 28.79101562 C-17.45362305 30.31952148 -17.45362305 30.31952148 -18.48828125 31.87890625 C-19.09196533 32.7922876 -19.69564941 33.70566895 -20.31762695 34.64672852 C-21.75793007 36.66139717 -23.18481575 38.32740029 -25 40 C-25 38.68 -25 37.36 -25 36 C-24.34 36 -23.68 36 -23 36 C-23 35.01 -23 34.02 -23 33 C-22.34 33 -21.68 33 -21 33 C-20.74347656 32.28070312 -20.48695313 31.56140625 -20.22265625 30.8203125 C-18.92884605 27.83586852 -17.35684394 25.49556563 -15.4375 22.875 C-13.45648138 20.16499947 -12.06538377 18.1961513 -11 15 C-10.34 15 -9.68 15 -9 15 C-8.88527344 14.42765625 -8.77054687 13.8553125 -8.65234375 13.265625 C-7.93817644 10.78528344 -6.92692128 8.93631303 -5.5625 6.75 C-4.91474609 5.69039063 -4.91474609 5.69039063 -4.25390625 4.609375 C-3.84011719 4.07828125 -3.42632812 3.5471875 -3 3 C-2.34 3 -1.68 3 -1 3 C-0.67 2.01 -0.34 1.02 0 0 Z " fill="#54AEC1" transform="translate(492,498)"/>
<path d="M0 0 C0 0.66 0 1.32 0 2 C-0.59683594 1.7834375 -1.19367188 1.566875 -1.80859375 1.34375 C-12.7017722 -2.15242614 -24.48807868 -3.28721066 -34.9375 1.9375 C-36.6421896 2.92936204 -38.3346468 3.94342266 -40 5 C-40.99 5.495 -40.99 5.495 -42 6 C-40.85910005 2.57730016 -39.79035429 1.2477854 -37 -1 C-34.25 -1.25 -34.25 -1.25 -32 -1 C-32 -1.66 -32 -2.32 -32 -3 C-20.32597292 -4.76211729 -11.2092906 -3.99186184 0 0 Z " fill="#52AFC3" transform="translate(457,372)"/>
<path d="M0 0 C1.14336739 3.55136842 0.93982348 6.67344224 0.75 10.375 C0.65796175 15.99986976 0.65796175 15.99986976 3.3125 20.75 C5.84992466 23.15359962 5.84992466 23.15359962 9 24 C9.33 24.66 9.66 25.32 10 26 C12.57951874 26.69093896 12.57951874 26.69093896 15.5625 27.125 C16.57441406 27.29257812 17.58632813 27.46015625 18.62890625 27.6328125 C19.41136719 27.75398437 20.19382812 27.87515625 21 28 C21 28.33 21 28.66 21 29 C14.47480487 29.54376626 9.35156915 29.01076206 4 25 C-0.34975203 20.25089109 -2.14356198 16.03896438 -2.1875 9.5625 C-2.20167969 8.61503906 -2.21585937 7.66757812 -2.23046875 6.69140625 C-1.99614518 3.95498356 -1.39701383 2.33571877 0 0 Z " fill="#55AFC1" transform="translate(429,525)"/>
<path d="M0 0 C-0.92683594 0.77085937 -1.85367188 1.54171875 -2.80859375 2.3359375 C-4.01837823 3.34878032 -5.22800552 4.3618109 -6.4375 5.375 C-7.35499023 6.13683594 -7.35499023 6.13683594 -8.29101562 6.9140625 C-11.60744935 9.56675456 -11.60744935 9.56675456 -14 13 C-13.27683594 13.12503906 -12.55367187 13.25007813 -11.80859375 13.37890625 C-9.05040521 13.98885337 -6.6642138 14.84831492 -4.0625 15.9375 C-0.41212678 17.43802711 3.2336816 18.8106363 7 20 C7 20.33 7 20.66 7 21 C-0.72257587 20.46121564 -8.11420559 17.44289721 -15 14 C-14.125 9.25 -14.125 9.25 -13 7 C-12.34 7 -11.68 7 -11 7 C-11 6.34 -11 5.68 -11 5 C-10.34 5 -9.68 5 -9 5 C-9 4.34 -9 3.68 -9 3 C-6.40821726 0.40821726 -3.54324677 -1.77162338 0 0 Z " fill="#53AFC2" transform="translate(586,380)"/>
<path d="M0 0 C0.99 0.33 1.98 0.66 3 1 C-18.09090909 17 -18.09090909 17 -26 17 C-26 16.34 -26 15.68 -26 15 C-25.01 15 -24.02 15 -23 15 C-23 14.34 -23 13.68 -23 13 C-22.40832031 12.84144531 -21.81664062 12.68289063 -21.20703125 12.51953125 C-15.78232153 10.91778172 -12.90217455 9.21856708 -9 5 C-7.03247172 3.93753473 -5.03412421 2.92862192 -3 2 C-2.01 1.34 -1.02 0.68 0 0 Z " fill="#73B575" transform="translate(463,672)"/>
<path d="M0 0 C7.38165498 3.55439219 14.4611143 7.49926815 21.5 11.6875 C22.98113281 12.55858398 22.98113281 12.55858398 24.4921875 13.44726562 C31.74330357 17.74330357 31.74330357 17.74330357 34 20 C29.31152178 19.40492392 25.57579145 17.37677389 21.5 15.125 C20.84902344 14.77308594 20.19804687 14.42117188 19.52734375 14.05859375 C17.67680413 13.05294696 15.83751045 12.02921231 14 11 C13.0203125 10.46117187 12.040625 9.92234375 11.03125 9.3671875 C10.3609375 8.91601562 9.690625 8.46484375 9 8 C9 7.34 9 6.68 9 6 C7.6078125 5.566875 7.6078125 5.566875 6.1875 5.125 C3 4 3 4 0 2 C0 1.34 0 0.68 0 0 Z " fill="#52AEC1" transform="translate(481,343)"/>
<path d="M0 0 C0.99 0.33 1.98 0.66 3 1 C2.34644531 1.69222656 2.34644531 1.69222656 1.6796875 2.3984375 C-5.59179345 10.36244044 -10.34091661 18.88371063 -14 29 C-15.31538327 24.84228506 -14.34433068 22.1120703 -13 18 C-12.34 18 -11.68 18 -11 18 C-11 17.01 -11 16.02 -11 15 C-10.34 15 -9.68 15 -9 15 C-8.7834375 14.1028125 -8.7834375 14.1028125 -8.5625 13.1875 C-8.1127561 11.43849596 -7.57107659 9.71322977 -7 8 C-6.34 8 -5.68 8 -5 8 C-5 6.68 -5 5.36 -5 4 C-4.01 4 -3.02 4 -2 4 C-1.34 2.68 -0.68 1.36 0 0 Z " fill="#D9FAFC" transform="translate(382,353)"/>
<path d="M0 0 C0.33 0 0.66 0 1 0 C1.02473868 3.93268867 1.04287835 7.86534713 1.05493164 11.7980957 C1.06242729 13.79314768 1.07513345 15.78817786 1.08789062 17.78320312 C1.09111328 19.03681641 1.09433594 20.29042969 1.09765625 21.58203125 C1.10289307 22.73936768 1.10812988 23.8967041 1.11352539 25.08911133 C1 28 1 28 0 31 C-0.99 31.33 -1.98 31.66 -3 32 C-2.84080078 31.28070313 -2.68160156 30.56140625 -2.51757812 29.8203125 C-2.02365855 27.1289168 -1.81455517 24.60646652 -1.71875 21.875 C-1.68136719 20.92109375 -1.64398438 19.9671875 -1.60546875 18.984375 C-1.57066406 17.99953125 -1.53585937 17.0146875 -1.5 16 C-1.43078714 14.04153227 -1.35798977 12.08318725 -1.28125 10.125 C-1.25095703 9.26132812 -1.22066406 8.39765625 -1.18945312 7.5078125 C-0.9953612 4.93859562 -0.55631425 2.51354941 0 0 Z " fill="#D5F9FC" transform="translate(402,398)"/>
<path d="M0 0 C0.33 0 0.66 0 1 0 C1.1174875 3.33303003 1.18767324 6.66551837 1.25 10 C1.30027344 11.40185547 1.30027344 11.40185547 1.3515625 12.83203125 C1.44915777 19.81009327 0.33676259 25.224999 -4.37744141 30.55834961 C-7.69496888 33.61356851 -10.54817608 34.68201258 -15 35 C-10.375 31 -10.375 31 -7 31 C-7 30.34 -7 29.68 -7 29 C-6.34 29 -5.68 29 -5 29 C-5 28.34 -5 27.68 -5 27 C-4.34 27 -3.68 27 -3 27 C-3 25.68 -3 24.36 -3 23 C-2.34 23 -1.68 23 -1 23 C-0.67 15.41 -0.34 7.82 0 0 Z " fill="#58AEBE" transform="translate(400,404)"/>
<path d="M0 0 C0.66 0.33 1.32 0.66 2 1 C1.67386719 1.58265625 1.34773438 2.1653125 1.01171875 2.765625 C-5.73355306 15.42047123 -6.42086051 26.97131648 -6 41 C-8.44442882 37.33335677 -8.38348296 34.50043226 -8.375 30.25 C-8.37483887 29.50081299 -8.37467773 28.75162598 -8.37451172 27.97973633 C-8.19615908 19.06116581 -6.31937353 9.8799382 -2 2 C-1.34 2 -0.68 2 0 2 C0 1.34 0 0.68 0 0 Z " fill="#E6FCE6" transform="translate(369,610)"/>
<path d="M0 0 C7.625 0.625 7.625 0.625 11 4 C13.73322448 5.09746265 16.49950372 5.95698688 19.30859375 6.83984375 C22.2804496 8.12089047 23.82908269 9.63823281 26 12 C26.66 12.33 27.32 12.66 28 13 C28 13.66 28 14.32 28 15 C24.59968965 13.70047993 21.42792599 12.22773876 18.2421875 10.46875 C17.36949219 9.98792969 16.49679687 9.50710938 15.59765625 9.01171875 C14.69917969 8.51285156 13.80070312 8.01398438 12.875 7.5 C11.96878906 7.00113281 11.06257813 6.50226563 10.12890625 5.98828125 C6.67295844 4.07855009 3.28719204 2.19146136 0 0 Z " fill="#54B1C4" transform="translate(457,374)"/>
<path d="M0 0 C0.33 0 0.66 0 1 0 C1.02505615 0.73114014 1.0501123 1.46228027 1.07592773 2.21557617 C1.19222641 5.53971417 1.31479928 8.86359241 1.4375 12.1875 C1.47681641 13.33798828 1.51613281 14.48847656 1.55664062 15.67382812 C1.59853516 16.78564453 1.64042969 17.89746094 1.68359375 19.04296875 C1.72025146 20.06414795 1.75690918 21.08532715 1.79467773 22.13745117 C1.98840063 24.83828463 2.40451953 27.36166128 3 30 C2.34 30 1.68 30 1 30 C-0.84172872 26.85396055 -1.24749955 24.56539522 -1.23046875 20.9375 C-1.22853516 19.97585938 -1.22660156 19.01421875 -1.22460938 18.0234375 C-1.21236328 17.02570313 -1.20011719 16.02796875 -1.1875 15 C-1.18685547 14.00226563 -1.18621094 13.00453125 -1.18554688 11.9765625 C-1.13688931 3.91021878 -1.13688931 3.91021878 0 0 Z " fill="#CBF5F9" transform="translate(362,401)"/>
<path d="M0 0 C0.33 0 0.66 0 1 0 C0.98952637 0.59425781 0.97905273 1.18851563 0.96826172 1.80078125 C0.92628869 4.53380989 0.9005442 7.26677037 0.875 10 C0.85824219 10.93457031 0.84148437 11.86914062 0.82421875 12.83203125 C0.78393855 18.59209963 1.34583345 23.4774282 3 29 C2.34 29.33 1.68 29.66 1 30 C-2.26177063 20.48650234 -4.44166885 9.44960624 0 0 Z " fill="#79BA7A" transform="translate(364,628)"/>
<path d="M0 0 C1.39458098 2.78916196 0.53044974 3.97609788 -0.375 6.9375 C-2.66425632 15.49869143 -2.73276296 24.19039272 -3 33 C-5 31 -5 31 -5.19873047 28.6809082 C-5.11028049 25.5568232 -5.00717258 22.43507712 -4.875 19.3125 C-4.85179687 18.23548828 -4.82859375 17.15847656 -4.8046875 16.04882812 C-4.54968907 9.55035248 -3.79550191 5.32742136 0 0 Z " fill="#78B978" transform="translate(628,592)"/>
<path d="M0 0 C0.66 0 1.32 0 2 0 C0.69150423 3.5693777 -0.87392474 6.52418566 -3.0390625 9.64453125 C-3.90917969 10.90620117 -3.90917969 10.90620117 -4.796875 12.19335938 C-5.70179688 13.48983398 -5.70179688 13.48983398 -6.625 14.8125 C-7.23601563 15.69615234 -7.84703125 16.57980469 -8.4765625 17.49023438 C-9.98003475 19.66322161 -11.48794734 21.83297876 -13 24 C-14 21 -14 21 -13.22265625 19.17578125 C-12.1484375 17.45052083 -11.07421875 15.72526042 -10 14 C-9.34 14 -8.68 14 -8 14 C-7.67 12.35 -7.34 10.7 -7 9 C-6.01 8.67 -5.02 8.34 -4 8 C-2.89363605 5.60931266 -2.89363605 5.60931266 -2 3 C-1.34 2.01 -0.68 1.02 0 0 Z " fill="#76B776" transform="translate(533,587)"/>
<path d="M0 0 C4.48525648 0.656379 8.66914029 1.70074209 13 3 C13 3.66 13 4.32 13 5 C13.71542969 5.12246094 14.43085937 5.24492187 15.16796875 5.37109375 C18.05112713 6.01135375 20.58592473 6.93551556 23.3125 8.0625 C24.19550781 8.42472656 25.07851563 8.78695313 25.98828125 9.16015625 C26.65214844 9.43730469 27.31601562 9.71445312 28 10 C28 10.66 28 11.32 28 12 C22.31112452 10.20351301 16.73840919 8.18044945 11.1875 6 C10.21864868 5.62657471 10.21864868 5.62657471 9.23022461 5.24560547 C5.76900829 3.86905193 2.84945429 2.41162882 0 0 Z " fill="#55B1C5" transform="translate(544,422)"/>
<path d="M0 0 C1.875 0.25 1.875 0.25 4 1 C6.29495898 4.37824381 6.2685216 7.43220315 6.25 11.4375 C6.25515625 12.54996094 6.2603125 13.66242188 6.265625 14.80859375 C5.99954848 18.00542493 5.47450714 20.16478997 4 23 C1.125 25.375 1.125 25.375 -2 27 C-4.375 26.75 -4.375 26.75 -6 26 C-5.071875 25.5875 -4.14375 25.175 -3.1875 24.75 C0.45782253 22.74864645 2.17502316 21.09994106 3.6875 17.25 C4.70919054 9.89382811 4.08458297 6.12687445 0 0 Z " fill="#52AFC2" transform="translate(619,374)"/>
<path d="M0 0 C-0.92941406 0.49628906 -1.85882813 0.99257813 -2.81640625 1.50390625 C-9.8331816 5.33158278 -15.6705709 8.90922389 -21 15 C-21.33 14.01 -21.66 13.02 -22 12 C-21.34 11.01 -20.68 10.02 -20 9 C-19.34 9 -18.68 9 -18 9 C-18 8.34 -18 7.68 -18 7 C-17.01 7 -16.02 7 -15 7 C-15 6.34 -15 5.68 -15 5 C-12.35261084 3.5393715 -11.10551666 3 -8 3 C-8 2.34 -8 1.68 -8 1 C-4.85571151 -0.9090323 -3.47925125 -1.04523725 0 0 Z " fill="#DCFBFE" transform="translate(407,338)"/>
<path d="M0 0 C4.95 0 9.9 0 15 0 C15 0.66 15 1.32 15 2 C16.32 2.33 17.64 2.66 19 3 C18.34 3.66 17.68 4.32 17 5 C16.154375 4.505 15.30875 4.01 14.4375 3.5 C9.43920338 1.31892511 6.15913418 1.21766437 0.9921875 3.08984375 C-2.02866814 4.34550061 -5.01239127 5.66780605 -8 7 C-8.99 7.33 -9.98 7.66 -11 8 C-11 7.34 -11 6.68 -11 6 C-9.73308493 5.32591692 -8.46129251 4.66099503 -7.1875 4 C-6.47980469 3.62875 -5.77210938 3.2575 -5.04296875 2.875 C-3 2 -3 2 0 2 C0 1.34 0 0.68 0 0 Z " fill="#51AEC1" transform="translate(601,369)"/>
<path d="M0 0 C0.66 0.33 1.32 0.66 2 1 C0.98679687 2.50240234 0.98679687 2.50240234 -0.046875 4.03515625 C-0.9480422 5.3775199 -1.84907679 6.71997258 -2.75 8.0625 C-3.1934375 8.71927734 -3.636875 9.37605469 -4.09375 10.05273438 C-6.9226709 14.27531484 -9.52808131 18.55863208 -12 23 C-12.75 21.4375 -12.75 21.4375 -13 19 C-11.86915563 16.49713591 -10.47860484 14.32992278 -9 12 C-8.34 12 -7.68 12 -7 12 C-6.34 10.02 -5.68 8.04 -5 6 C-4.34 6 -3.68 6 -3 6 C-3 5.01 -3 4.02 -3 3 C-2.34 3 -1.68 3 -1 3 C-0.67 2.01 -0.34 1.02 0 0 Z " fill="#DAFBFD" transform="translate(440,506)"/>
<path d="M0 0 C0.66 0.33 1.32 0.66 2 1 C-1.99656786 5.87155609 -5.6712592 9.65404648 -11 13 C-11.99 14.485 -11.99 14.485 -13 16 C-13.99 15.67 -14.98 15.34 -16 15 C-13.89888324 12.87190742 -11.79429065 10.74746285 -9.6875 8.625 C-9.09259766 8.02171875 -8.49769531 7.4184375 -7.88476562 6.796875 C-7.30791016 6.21679688 -6.73105469 5.63671875 -6.13671875 5.0390625 C-5.60780029 4.50490723 -5.07888184 3.97075195 -4.53393555 3.42041016 C-3 2 -3 2 0 0 Z " fill="#4CB0C5" transform="translate(396,343)"/>
<path d="M0 0 C0.78375 0.33 1.5675 0.66 2.375 1 C9.49562623 2.96431068 16.07972584 2.40705188 23 0 C22.3125 1.9375 22.3125 1.9375 21 4 C15.41999343 6.0290933 8.36480282 5.8338503 2.9375 3.5 C1.968125 3.005 0.99875 2.51 0 2 C0 1.34 0 0.68 0 0 Z " fill="#CFF4F8" transform="translate(435,551)"/>
<path d="M0 0 C0.99 0.33 1.98 0.66 3 1 C-1.62 7.93 -6.24 14.86 -11 22 C-12 19 -12 19 -10.8125 15.5625 C-9.12741981 12.25044583 -7.66287095 10.49107283 -5 8 C-3.76487921 5.86690808 -3.76487921 5.86690808 -3 4 C-2.34 4 -1.68 4 -1 4 C-0.67 2.68 -0.34 1.36 0 0 Z " fill="#52AEC2" transform="translate(508,473)"/>
<path d="M0 0 C0.66 0 1.32 0 2 0 C-0.28260516 10.0217236 -4.60620182 18.79839653 -13 25 C-13 24.01 -13 23.02 -13 22 C-12.34 22 -11.68 22 -11 22 C-11 21.34 -11 20.68 -11 20 C-10.34 20 -9.68 20 -9 20 C-9 19.01 -9 18.02 -9 17 C-8.34 17 -7.68 17 -7 17 C-6.7834375 16.071875 -6.7834375 16.071875 -6.5625 15.125 C-6 13 -6 13 -5 11 C-4.34 11 -3.68 11 -3 11 C-2.01 7.37 -1.02 3.74 0 0 Z " fill="#54AEC2" transform="translate(658,401)"/>
<path d="M0 0 C0.66 0 1.32 0 2 0 C0.43855754 4.64021883 -2.08334353 8.21237569 -4.9375 12.125 C-5.38029297 12.74503906 -5.82308594 13.36507812 -6.27929688 14.00390625 C-8.35667491 16.88313363 -10.44647965 19.5374953 -13 22 C-12.29228053 18.31985875 -10.87103847 15.23833582 -9 12 C-8.01 11.67 -7.02 11.34 -6 11 C-5.26676204 8.98491642 -5.26676204 8.98491642 -5 7 C-4.34 7 -3.68 7 -3 7 C-2.67 5.35 -2.34 3.7 -2 2 C-1.34 2 -0.68 2 0 2 C0 1.34 0 0.68 0 0 Z " fill="#74B573" transform="translate(563,543)"/>
<path d="M0 0 C1.64453125 0.81640625 1.64453125 0.81640625 3.89453125 2.31640625 C-0.06962997 3.63779332 -2.13367046 2.46082271 -6.10546875 1.31640625 C-12.02058923 0.43543086 -15.45987588 3.01496969 -20.10546875 6.31640625 C-20.43546875 5.32640625 -20.76546875 4.33640625 -21.10546875 3.31640625 C-14.77418198 -1.28816594 -7.59541892 -2.4660451 0 0 Z " fill="#7CB87B" transform="translate(587.10546875,469.68359375)"/>
<path d="M0 0 C0.33 1.32 0.66 2.64 1 4 C-0.14453125 5.703125 -0.14453125 5.703125 -1.8125 7.25 C-2.35519531 7.77078125 -2.89789062 8.2915625 -3.45703125 8.828125 C-5 10 -5 10 -7 10 C-7.33 10.99 -7.66 11.98 -8 13 C-9.32 12.67 -10.64 12.34 -12 12 C-8.04 8.04 -4.08 4.08 0 0 Z " fill="#53B3C6" transform="translate(550,359)"/>
<path d="M0 0 C1.32 0.33 2.64 0.66 4 1 C1.39682213 2.95965048 -1.20771242 4.91748982 -3.8125 6.875 C-4.55048828 7.43058594 -5.28847656 7.98617188 -6.04882812 8.55859375 C-6.76103516 9.09355469 -7.47324219 9.62851562 -8.20703125 10.1796875 C-8.8616333 10.67194824 -9.51623535 11.16420898 -10.19067383 11.67138672 C-11.76212481 12.82532495 -13.37781523 13.91854349 -15 15 C-14.67 13.68 -14.34 12.36 -14 11 C-13.34 11 -12.68 11 -12 11 C-11.67 10.01 -11.34 9.02 -11 8 C-8.35509259 6.19032651 -6.04582887 5.01527629 -3 4 C-3 3.34 -3 2.68 -3 2 C-2.01 2 -1.02 2 0 2 C0 1.34 0 0.68 0 0 Z " fill="#D9FAFD" transform="translate(567,343)"/>
<path d="M0 0 C0.66 0.33 1.32 0.66 2 1 C-0.38704114 4.8457885 -2.97968282 6.07024775 -7 8 C-8.69859667 9.29241051 -10.37609523 10.61490475 -12 12 C-11.67 13.32 -11.34 14.64 -11 16 C-12.65 15.67 -14.3 15.34 -16 15 C-14.67435047 11.9618161 -13.37095575 10.21054802 -10.7421875 8.203125 C-10.11699219 7.71972656 -9.49179687 7.23632812 -8.84765625 6.73828125 C-7.87119141 6.00158203 -7.87119141 6.00158203 -6.875 5.25 C-5.88693359 4.49009766 -5.88693359 4.49009766 -4.87890625 3.71484375 C-3.25785888 2.46969142 -1.62961787 1.23391431 0 0 Z " fill="#D6FAFC" transform="translate(588,378)"/>
<path d="M0 0 C0.66 0.33 1.32 0.66 2 1 C0.7934375 2.2375 0.7934375 2.2375 -0.4375 3.5 C-3.91267424 7.69383633 -4.22769261 12.03493629 -3.82421875 17.2890625 C-3.59811937 19.1990961 -3.30519657 21.10099912 -3 23 C-6.70101189 18.86473605 -6.60244762 15.36331388 -6.50390625 9.99609375 C-5.73795513 5.44195029 -3.45350346 2.91903268 0 0 Z " fill="#DEF8DD" transform="translate(407,626)"/>
<path d="M0 0 C0.66 0 1.32 0 2 0 C4.82668824 4.75838285 5.43842299 8.69520072 5.3125 14.125 C5.31572266 14.82753906 5.31894531 15.53007812 5.32226562 16.25390625 C5.28349727 19.98271722 5.057847 22.83534287 3 26 C2.01 25.67 1.02 25.34 0 25 C0.7425 23.88625 0.7425 23.88625 1.5 22.75 C4.19071469 17.35575769 3.98000493 10.36243072 2.3203125 4.66796875 C1.46117915 2.57519876 1.46117915 2.57519876 0 0 Z " fill="#DEF6DD" transform="translate(594,475)"/>
<path d="M0 0 C0.44730469 0.40992188 0.89460938 0.81984375 1.35546875 1.2421875 C2.26232422 2.05042969 2.26232422 2.05042969 3.1875 2.875 C3.77917969 3.40867187 4.37085938 3.94234375 4.98046875 4.4921875 C9.29825438 7.71591139 12.99723915 8.24181892 18.3125 8.125 C19.38113281 8.10695313 20.44976562 8.08890625 21.55078125 8.0703125 C22.76314453 8.03550781 22.76314453 8.03550781 24 8 C19.32547607 11.11634929 14.47314148 10.59364762 9 10 C4.98763627 8.02901431 2.30749747 5.84582912 0 2 C0 1.34 0 0.68 0 0 Z " fill="#DAFAFC" transform="translate(365,431)"/>
<path d="M0 0 C2.70061391 1.68038199 4.69608913 3.38938788 6.8125 5.75 C6.4825 6.41 6.1525 7.07 5.8125 7.75 C3.3125 6.375 3.3125 6.375 0.8125 4.75 C0.8125 4.09 0.8125 3.43 0.8125 2.75 C-4.9510632 0.10187637 -10.09682576 0.9480251 -16.1875 1.75 C-10.87352466 -1.79265022 -5.99657575 -2.35159833 0 0 Z " fill="#CFF5F8" transform="translate(615.1875,371.25)"/>
<path d="M0 0 C0.99 0 1.98 0 3 0 C3 0.66 3 1.32 3 2 C-3.21509414 6.39199986 -9.4912347 9.70040601 -17 11 C-17 10.34 -17 9.68 -17 9 C-16.33613281 8.74605469 -15.67226563 8.49210937 -14.98828125 8.23046875 C-10.40181011 6.44274934 -6.1857879 4.61611744 -2 2 C-1.34 2 -0.68 2 0 2 C0 1.34 0 0.68 0 0 Z " fill="#56B0C2" transform="translate(640,427)"/>
<path d="M0 0 C1 2 1 2 0.51171875 3.91015625 C0.23972656 4.62042969 -0.03226562 5.33070313 -0.3125 6.0625 C-0.57675781 6.77535156 -0.84101563 7.48820313 -1.11328125 8.22265625 C-2 10 -2 10 -4 11 C-4.2165625 11.99 -4.2165625 11.99 -4.4375 13 C-4.623125 13.66 -4.80875 14.32 -5 15 C-5.99 15.33 -6.98 15.66 -8 16 C-6.65678452 9.68688724 -3.75248411 5.20391664 0 0 Z " fill="#74B774" transform="translate(374,605)"/>
<path d="M0 0 C4.00992347 1.28890397 5.32369049 3.72868071 7.18359375 7.2734375 C9.20043244 11.53871357 9.09042811 15.29773809 9 20 C6.78930051 15.74235653 5.03722802 11.31031223 3.21875 6.875 C2.2241441 4.52875018 1.17358676 2.26024118 0 0 Z " fill="#DDFDFE" transform="translate(652,353)"/>
<path d="M0 0 C0.33 0.99 0.66 1.98 1 3 C0.04504326 4.69287785 -0.9590934 6.35857037 -2 8 C-2.12375 8.680625 -2.2475 9.36125 -2.375 10.0625 C-3.33585022 13.04113568 -5.52638104 14.22406844 -8 16 C-8.66 15.67 -9.32 15.34 -10 15 C-5.05 7.575 -5.05 7.575 0 0 Z " fill="#78B876" transform="translate(509,557)"/>
<path d="M0 0 C0.66 0.33 1.32 0.66 2 1 C-3.445 9.415 -3.445 9.415 -9 18 C-9.33 16.68 -9.66 15.36 -10 14 C-9.34 14 -8.68 14 -8 14 C-8 13.01 -8 12.02 -8 11 C-7.34 11 -6.68 11 -6 11 C-6 9.68 -6 8.36 -6 7 C-5.34 7 -4.68 7 -4 7 C-4 6.34 -4 5.68 -4 5 C-3.34 5 -2.68 5 -2 5 C-2 4.01 -2 3.02 -2 2 C-1.34 2 -0.68 2 0 2 C0 1.34 0 0.68 0 0 Z " fill="#E5FBE4" transform="translate(547,498)"/>
<path d="M0 0 C0 0.66 0 1.32 0 2 C-0.99 2 -1.98 2 -3 2 C-3 2.66 -3 3.32 -3 4 C-4.0725 4.433125 -5.145 4.86625 -6.25 5.3125 C-8.59294192 6.29776129 -10.17784529 7.14227623 -12.1875 8.75 C-12.785625 9.1625 -13.38375 9.575 -14 10 C-16.11328125 9.578125 -16.11328125 9.578125 -18 9 C-3.26213592 0 -3.26213592 0 0 0 Z " fill="#53B1C4" transform="translate(585,337)"/>
<path d="M0 0 C0.6640625 1.70703125 0.6640625 1.70703125 1 4 C-0.0390625 6.32421875 -0.0390625 6.32421875 -1.625 8.6875 C-2.13289063 9.47511719 -2.64078125 10.26273438 -3.1640625 11.07421875 C-5.38233554 13.40104558 -6.85367082 13.68321942 -10 14 C-10 13.34 -10 12.68 -10 12 C-9.01 12 -8.02 12 -7 12 C-6.773125 11.319375 -6.54625 10.63875 -6.3125 9.9375 C-4.64427643 6.20385676 -2.44270392 3.27836579 0 0 Z " fill="#7BBA79" transform="translate(487,589)"/>
<path d="M0 0 C5.99932374 1.8331267 11.44920563 4.07321751 17 7 C13.35202603 8.21599132 12.20645737 7.3327695 8.8515625 5.76953125 C6.29418674 4.70665567 3.73677743 4.33375334 1 4 C0.67 2.68 0.34 1.36 0 0 Z " fill="#76B774" transform="translate(459,593)"/>
<path d="M0 0 C-1.17755859 0.07347656 -1.17755859 0.07347656 -2.37890625 0.1484375 C-8.19022303 0.5620036 -13.478943 1.11782148 -19 3 C-14.02398106 -2.50916382 -6.54906708 -4.36604472 0 0 Z " fill="#79B778" transform="translate(650,587)"/>
<path d="M0 0 C3.93936444 0.55680063 6.40019641 1.69498575 9.625 4 C12.17796131 5.81234113 14.00688125 7.00229375 17 8 C17 8.66 17 9.32 17 10 C12.97683781 8.51463956 9.38707358 6.60123107 5.6875 4.4375 C4.61886719 3.81746094 3.55023438 3.19742187 2.44921875 2.55859375 C1.64097656 2.04425781 0.83273437 1.52992188 0 1 C0 0.67 0 0.34 0 0 Z " fill="#4EAEC1" transform="translate(485,389)"/>
<path d="M0 0 C0.33 0.99 0.66 1.98 1 3 C-0.55283125 4.63424183 -2.1176881 6.25706248 -3.6875 7.875 C-4.99267578 9.23238281 -4.99267578 9.23238281 -6.32421875 10.6171875 C-8.87943979 12.89263982 -10.76901814 13.98704352 -14 15 C-13.360625 14.38125 -12.72125 13.7625 -12.0625 13.125 C-7.85331938 8.92798464 -3.95343601 4.43577243 0 0 Z " fill="#E1FBE0" transform="translate(646,666)"/>
<path d="M0 0 C0.66 0.33 1.32 0.66 2 1 C-7.22551253 9.81548975 -7.22551253 9.81548975 -13 11 C-13 10.34 -13 9.68 -13 9 C-10.09432866 6.98217268 -7.48330216 5.64505596 -4 5 C-4 4.34 -4 3.68 -4 3 C-3.34 3 -2.68 3 -2 3 C-2 2.34 -2 1.68 -2 1 C-1.34 0.67 -0.68 0.34 0 0 Z " fill="#E4FCE4" transform="translate(613,642)"/>
<path d="M0 0 C0.66 0.33 1.32 0.66 2 1 C-1.3 5.95 -4.6 10.9 -8 16 C-8.33 15.01 -8.66 14.02 -9 13 C-7.8203125 10.84375 -7.8203125 10.84375 -6.125 8.5 C-4.26770381 5.90842392 -3.01516762 4.04550286 -2 1 C-1.34 0.67 -0.68 0.34 0 0 Z " fill="#E3FAE2" transform="translate(527,528)"/>
<path d="M0 0 C4.14032846 1.54385129 7.93553053 3.51028938 11.8125 5.625 C12.40998047 5.94984375 13.00746094 6.2746875 13.62304688 6.609375 C15.08337135 7.40379151 16.54187491 8.20155376 18 9 C15 10 15 10 11.42578125 8.34765625 C10.04907832 7.59612277 8.67814591 6.8339433 7.3125 6.0625 C6.2596582 5.48338867 6.2596582 5.48338867 5.18554688 4.89257812 C3.45204328 3.93738227 1.72534991 2.96984614 0 2 C0 1.34 0 0.68 0 0 Z " fill="#D8F9FB" transform="translate(462,377)"/>
<path d="M0 0 C0.66 0.99 1.32 1.98 2 3 C1 5 0 7 -1 9 C-1.66 9 -2.32 9 -3 9 C-3.33 10.65 -3.66 12.3 -4 14 C-5.06528748 11.26980214 -5.07998186 10.20701188 -4.00390625 7.421875 C-3.52824219 6.54015625 -3.05257813 5.6584375 -2.5625 4.75 C-2.08941406 3.85796875 -1.61632812 2.9659375 -1.12890625 2.046875 C-0.75636719 1.37140625 -0.38382812 0.6959375 0 0 Z " fill="#51B2C5" transform="translate(374,367)"/>
<path d="M0 0 C0.33 0.66 0.66 1.32 1 2 C-0.2578125 4.75 -0.2578125 4.75 -2.125 8 C-2.72570312 9.0725 -3.32640625 10.145 -3.9453125 11.25 C-6.15529996 14.20785394 -7.49678669 15.03025237 -11 16 C-7.43120211 10.59161557 -3.79801861 5.25020219 0 0 Z " fill="#D9FAFC" transform="translate(469,535)"/>
<path d="M0 0 C0.33 0.66 0.66 1.32 1 2 C0.09066991 3.27609323 -0.82782853 4.54565553 -1.75 5.8125 C-2.26046875 6.52019531 -2.7709375 7.22789062 -3.296875 7.95703125 C-5.02482358 10.02977691 -6.78526476 11.47375854 -9 13 C-9.66 12.34 -10.32 11.68 -11 11 C-10.37351562 10.45730469 -9.74703125 9.91460937 -9.1015625 9.35546875 C-8.28429687 8.64003906 -7.46703125 7.92460937 -6.625 7.1875 C-5.40683594 6.12595703 -5.40683594 6.12595703 -4.1640625 5.04296875 C-1.83816812 3.00018747 -1.83816812 3.00018747 0 0 Z " fill="#DAFAFC" transform="translate(651,419)"/>
<path d="M0 0 C0.66 0.33 1.32 0.66 2 1 C1.06409496 2.1055189 0.12620142 3.20935453 -0.8125 4.3125 C-1.33457031 4.92738281 -1.85664063 5.54226563 -2.39453125 6.17578125 C-4 8 -4 8 -5.63671875 9.60546875 C-7.1151615 10.9757745 -7.1151615 10.9757745 -8 13 C-8.66 13 -9.32 13 -10 13 C-8.65515286 8.95838045 -6.9494838 6.61321846 -3.875 3.6875 C-3.15054687 2.99011719 -2.42609375 2.29273438 -1.6796875 1.57421875 C-1.12539063 1.05472656 -0.57109375 0.53523438 0 0 Z " fill="#DBFBFD" transform="translate(417,376)"/>
<path d="M0 0 C0.81984375 0.44472656 1.6396875 0.88945312 2.484375 1.34765625 C3.56203125 1.91355469 4.6396875 2.47945313 5.75 3.0625 C6.81734375 3.63097656 7.8846875 4.19945312 8.984375 4.78515625 C12.02593537 6.01044806 13.04893565 6.25348607 16 5 C16 5.99 16 6.98 16 8 C9.375 8.25 9.375 8.25 6 6 C6 5.34 6 4.68 6 4 C4.02 3.34 2.04 2.68 0 2 C0 1.34 0 0.68 0 0 Z " fill="#59B2C4" transform="translate(522,367)"/>
<path d="M0 0 C1.32 0 2.64 0 4 0 C4 0.66 4 1.32 4 2 C4.721875 1.938125 5.44375 1.87625 6.1875 1.8125 C9.5890997 2.03927331 11.29049839 2.96787379 14 5 C14.33 5.99 14.66 6.98 15 8 C9.52067211 6.45454854 4.88570819 3.84456788 0 1 C0 0.67 0 0.34 0 0 Z " fill="#DDF7DC" transform="translate(552,643)"/>
<path d="M0 0 C0.33 1.32 0.66 2.64 1 4 C-0.25 5.4375 -0.25 5.4375 -2 7 C-3.01866229 8.65532623 -4.01810813 10.32260138 -5 12 C-5.98244845 13.34631825 -6.97676564 14.68441297 -8 16 C-8.66 15.67 -9.32 15.34 -10 15 C-5.05 7.575 -5.05 7.575 0 0 Z " fill="#58B1C3" transform="translate(504,414)"/>
<path d="M0 0 C0.66 0.99 1.32 1.98 2 3 C1.01 4.485 1.01 4.485 0 6 C-0.66 6 -1.32 6 -2 6 C-2.4021875 7.2065625 -2.4021875 7.2065625 -2.8125 8.4375 C-3.4003125 9.7059375 -3.4003125 9.7059375 -4 11 C-4.99 11.33 -5.98 11.66 -7 12 C-5.44298069 7.32894208 -2.91552627 3.91294315 0 0 Z " fill="#75B772" transform="translate(543,507)"/>
<path d="M0 0 C0.66 0.33 1.32 0.66 2 1 C-1.55744951 5.74326601 -4.61153256 8.45827007 -10 11 C-10.66 10.67 -11.32 10.34 -12 10 C-11.30132812 9.44570313 -10.60265625 8.89140625 -9.8828125 8.3203125 C-8.97273438 7.59585938 -8.06265625 6.87140625 -7.125 6.125 C-6.22007812 5.40570312 -5.31515625 4.68640625 -4.3828125 3.9453125 C-1.99734824 2.06439526 -1.99734824 2.06439526 0 0 Z " fill="#DFF9E0" transform="translate(470,668)"/>
<path d="M0 0 C0.66 0.33 1.32 0.66 2 1 C-0.64 5.95 -3.28 10.9 -6 16 C-7 12 -7 12 -6 10 C-5.34 10 -4.68 10 -4 10 C-3.71125 8.906875 -3.4225 7.81375 -3.125 6.6875 C-2 3 -2 3 0 0 Z " fill="#77B678" transform="translate(653,650)"/>
<path d="M0 0 C5.91492272 0.45224761 11.35199888 1.1582605 17 3 C17 3.33 17 3.66 17 4 C14.03 4 11.06 4 8 4 C8 3.34 8 2.68 8 2 C5.69 2 3.38 2 1 2 C0.67 1.34 0.34 0.68 0 0 Z " fill="#72B572" transform="translate(429,585)"/>
<path d="M0 0 C0.33 0.66 0.66 1.32 1 2 C0.109375 4.05859375 0.109375 4.05859375 -1.25 6.4375 C-1.90742188 7.61119141 -1.90742188 7.61119141 -2.578125 8.80859375 C-3.89303702 10.83514771 -5.22427893 12.37573749 -7 14 C-7.66 13.67 -8.32 13.34 -9 13 C-6.03 8.71 -3.06 4.42 0 0 Z " fill="#51B0C3" transform="translate(493,431)"/>
<path d="M0 0 C0.56847656 0.08378906 1.13695312 0.16757812 1.72265625 0.25390625 C6.76635545 0.91910197 11.00294069 0.9568837 16 0 C15 2 15 2 12.3828125 2.95703125 C11.30773437 3.23933594 10.23265625 3.52164063 9.125 3.8125 C8.05507813 4.10769531 6.98515625 4.40289063 5.8828125 4.70703125 C3 5 3 5 1.1171875 3.69921875 C0 2 0 2 0 0 Z " fill="#75B872" transform="translate(409,653)"/>
<path d="M0 0 C1.77119803 0.14133499 3.54195287 0.28823208 5.3125 0.4375 C6.29863281 0.51871094 7.28476562 0.59992188 8.30078125 0.68359375 C11 1 11 1 14 2 C14.33 2.99 14.66 3.98 15 5 C13.06077578 4.54901762 11.12366406 4.08894441 9.1875 3.625 C8.10855469 3.36976563 7.02960938 3.11453125 5.91796875 2.8515625 C3 2 3 2 0 0 Z " fill="#CBF3F7" transform="translate(453,332)"/>
<path d="M0 0 C0.66 0.33 1.32 0.66 2 1 C-0.64 3.97 -3.28 6.94 -6 10 C-6.33 9.01 -6.66 8.02 -7 7 C-6.67 6.34 -6.34 5.68 -6 5 C-5.34 5 -4.68 5 -4 5 C-3.67 4.01 -3.34 3.02 -3 2 C-2.01 1.34 -1.02 0.68 0 0 Z " fill="#77B876" transform="translate(484,652)"/>
<path d="M0 0 C-1.16378237 3.49134712 -1.89498744 4.15377632 -5 6 C-8.25 6.6875 -8.25 6.6875 -11 7 C-4.48275862 0 -4.48275862 0 0 0 Z " fill="#71B671" transform="translate(393,591)"/>
<path d="M0 0 C3.91593446 0.78318689 7.36406635 2.39179858 11 4 C6.46089183 5.51303606 2.47150576 4.49050192 -2 3 C-1.34 2.01 -0.68 1.02 0 0 Z " fill="#CDF5F9" transform="translate(544,423)"/>
<path d="M0 0 C-1 3 -1 3 -2.8125 4.0625 C-3.534375 4.371875 -4.25625 4.68125 -5 5 C-5.680625 5.37125 -6.36125 5.7425 -7.0625 6.125 C-9 7 -9 7 -12 7 C-12 6.34 -12 5.68 -12 5 C-10.27473958 4.28385417 -8.54947917 3.56770833 -6.82421875 2.8515625 C-0.71559633 0 -0.71559633 0 0 0 Z " fill="#6BB769" transform="translate(606,651)"/>
<path d="M0 0 C0.99 0.33 1.98 0.66 3 1 C1.56542672 1.9834496 0.12722594 2.96160921 -1.3125 3.9375 C-2.11300781 4.48277344 -2.91351563 5.02804687 -3.73828125 5.58984375 C-6 7 -6 7 -9 8 C-9 7.34 -9 6.68 -9 6 C-8.34 6 -7.68 6 -7 6 C-7 5.34 -7 4.68 -7 4 C-4.69 3.34 -2.38 2.68 0 2 C0 1.34 0 0.68 0 0 Z " fill="#E2FAE1" transform="translate(437,643)"/>
<path d="M0 0 C0 4.03426882 -1.7445374 6.77682203 -4 10 C-6.25 11.9375 -6.25 11.9375 -8 13 C-6.40956621 7.91061189 -3.2553049 4.12543357 0 0 Z " fill="#DFF8DF" transform="translate(526,601)"/>
<path d="M0 0 C0.33 0.99 0.66 1.98 1 3 C-0.20428246 4.52976421 -1.41813052 6.05516067 -2.71875 7.50390625 C-4.17619409 9.20573883 -5.12849368 10.94007598 -6 13 C-6.66 13 -7.32 13 -8 13 C-6.40956621 7.91061189 -3.2553049 4.12543357 0 0 Z " fill="#E1F8E0" transform="translate(564,545)"/>
<path d="M0 0 C0.66 0 1.32 0 2 0 C0.61735163 2.86867231 -0.92148553 5.56024032 -2.625 8.25 C-3.07101562 8.95640625 -3.51703125 9.6628125 -3.9765625 10.390625 C-4.48316406 11.18726563 -4.48316406 11.18726563 -5 12 C-5.33 10.68 -5.66 9.36 -6 8 C-5.34 8 -4.68 8 -4 8 C-4 7.01 -4 6.02 -4 5 C-3.34 5 -2.68 5 -2 5 C-1.855625 4.360625 -1.71125 3.72125 -1.5625 3.0625 C-1 1 -1 1 0 0 Z " fill="#72B470" transform="translate(592,500)"/>
<path d="M0 0 C5.28 0 10.56 0 16 0 C11.33835239 2.33082381 9.27645508 3.28550343 4.3125 2.0625 C3.50425781 1.86785156 2.69601562 1.67320312 1.86328125 1.47265625 C0.94095703 1.23869141 0.94095703 1.23869141 0 1 C0 0.67 0 0.34 0 0 Z " fill="#EBFEFE" transform="translate(597,441)"/>
<path d="M0 0 C1.3805087 3.76668598 0.59568159 6.44789173 -0.4375 10.25 C-0.72496094 11.32765625 -1.01242187 12.4053125 -1.30859375 13.515625 C-1.53675781 14.33546875 -1.76492188 15.1553125 -2 16 C-2.33 16 -2.66 16 -3 16 C-3 12.7 -3 9.4 -3 6 C-2.34 6 -1.68 6 -1 6 C-0.67 4.02 -0.34 2.04 0 0 Z " fill="#D1F8FB" transform="translate(366,382)"/>
<path d="M0 0 C0.79921875 0.01804687 1.5984375 0.03609375 2.421875 0.0546875 C3.02515625 0.07789063 3.6284375 0.10109375 4.25 0.125 C1.10426323 2.22215785 -0.76456251 2.64504559 -4.4375 3.25 C-5.92830078 3.50136719 -5.92830078 3.50136719 -7.44921875 3.7578125 C-8.20847656 3.87898438 -8.96773437 4.00015625 -9.75 4.125 C-7.74279909 0.11059818 -4.14831196 -0.12200918 0 0 Z " fill="#D6FAFC" transform="translate(596.75,330.875)"/>
<path d="M0 0 C0.33 0 0.66 0 1 0 C1.25 2.25 1.25 2.25 1 5 C-0.875 7.125 -0.875 7.125 -3 9 C-3.99 10.485 -3.99 10.485 -5 12 C-5.66 11.67 -6.32 11.34 -7 11 C-5.85845641 9.16399255 -4.71165684 7.33125195 -3.5625 5.5 C-2.92441406 4.4790625 -2.28632813 3.458125 -1.62890625 2.40625 C-0.82259766 1.21515625 -0.82259766 1.21515625 0 0 Z " fill="#55B2C4" transform="translate(445,501)"/>
<path d="M0 0 C0.33 0.99 0.66 1.98 1 3 C-0.21484375 5.04296875 -0.21484375 5.04296875 -1.9375 7.1875 C-2.50339844 7.90292969 -3.06929688 8.61835938 -3.65234375 9.35546875 C-4.09707031 9.89816406 -4.54179687 10.44085938 -5 11 C-5.66 10.67 -6.32 10.34 -7 10 C-3.535 5.05 -3.535 5.05 0 0 Z " fill="#D4F7FA" transform="translate(494,498)"/>
<path d="M0 0 C2.97 0 5.94 0 9 0 C9.33 1.32 9.66 2.64 10 4 C6.7 3.01 3.4 2.02 0 1 C0 0.67 0 0.34 0 0 Z " fill="#7CBD7E" transform="translate(548,685)"/>
<path d="M0 0 C1.32 0.33 2.64 0.66 4 1 C-0.455 3.97 -0.455 3.97 -5 7 C-4.67 5.68 -4.34 4.36 -4 3 C-3.01 2.67 -2.02 2.34 -1 2 C-0.67 1.34 -0.34 0.68 0 0 Z " fill="#72B675" transform="translate(630,678)"/>
<path d="M0 0 C2.97 0.495 2.97 0.495 6 1 C6 1.66 6 2.32 6 3 C7.32 3.33 8.64 3.66 10 4 C10 4.66 10 5.32 10 6 C6.40992874 4.66654496 3.20429093 3.1056769 0 1 C0 0.67 0 0.34 0 0 Z " fill="#77B777" transform="translate(521,670)"/>
<path d="M0 0 C4.8274799 1.41292095 8.7162359 3.42974154 13 6 C10 7 10 7 7.7734375 6.07421875 C6.58621094 5.38779297 6.58621094 5.38779297 5.375 4.6875 C4.57835937 4.23761719 3.78171875 3.78773438 2.9609375 3.32421875 C1 2 1 2 0 0 Z " fill="#E2FAE2" transform="translate(503,661)"/>
<path d="M0 0 C0.66 0.33 1.32 0.66 2 1 C0.02 3.97 -1.96 6.94 -4 10 C-4.33 9.01 -4.66 8.02 -5 7 C-2 2 -2 2 0 0 Z " fill="#75B673" transform="translate(576,524)"/>
<path d="M0 0 C0.65234375 1.765625 0.65234375 1.765625 1 4 C0.00390625 5.921875 0.00390625 5.921875 -1.4375 7.75 C-2.14712891 8.67039062 -2.14712891 8.67039062 -2.87109375 9.609375 C-3.24363281 10.06828125 -3.61617187 10.5271875 -4 11 C-5 8 -5 8 -4.00390625 5.95703125 C-3.52824219 5.24933594 -3.05257812 4.54164063 -2.5625 3.8125 C-2.08941406 3.09707031 -1.61632812 2.38164062 -1.12890625 1.64453125 C-0.75636719 1.10183594 -0.38382813 0.55914062 0 0 Z " fill="#70B670" transform="translate(550,496)"/>
<path d="M0 0 C1.37780724 2.75561448 0.92023755 4.09771234 0 7 C-2.0625 8.8125 -2.0625 8.8125 -4 10 C-4.66 9.67 -5.32 9.34 -6 9 C-4.02 6.03 -2.04 3.06 0 0 Z " fill="#78B876" transform="translate(557,486)"/>
<path d="M0 0 C-2.64 1.65 -5.28 3.3 -8 5 C-8.33 4.01 -8.66 3.02 -9 2 C-4.5 -1.125 -4.5 -1.125 0 0 Z " fill="#6FB66E" transform="translate(575,471)"/>
<path d="M0 0 C0.66 0.33 1.32 0.66 2 1 C1.21625 1.9075 0.4325 2.815 -0.375 3.75 C-2.30052496 6.05190236 -3.82205741 8.21577207 -5 11 C-4.50769231 4.6 -4.50769231 4.6 -1.9375 1.5625 C-0.9784375 0.7890625 -0.9784375 0.7890625 0 0 Z " fill="#E9FDEA" transform="translate(407,626)"/>
<path d="M0 0 C0.66 0 1.32 0 2 0 C0.6302836 3.99500618 -1.25722422 6.80009492 -4 10 C-3.52651586 5.8333396 -2.95303159 3.07115285 0 0 Z " fill="#6EB36F" transform="translate(523,601)"/>
<path d="M0 0 C0.66 0.33 1.32 0.66 2 1 C0.02 3.97 -1.96 6.94 -4 10 C-4.66 9.34 -5.32 8.68 -6 8 C-4.02 5.36 -2.04 2.72 0 0 Z " fill="#58B0C2" transform="translate(465,538)"/>
<path d="M0 0 C0.66 0.33 1.32 0.66 2 1 C1.19152271 2.16945792 0.37810888 3.33550461 -0.4375 4.5 C-0.88996094 5.1496875 -1.34242188 5.799375 -1.80859375 6.46875 C-2.20175781 6.9740625 -2.59492187 7.479375 -3 8 C-3.33 8 -3.66 8 -4 8 C-4 6.35 -4 4.7 -4 3 C-2.68 2.67 -1.36 2.34 0 2 C0 1.34 0 0.68 0 0 Z " fill="#51B0C4" transform="translate(529,443)"/>
<path d="M0 0 C0.66 0.33 1.32 0.66 2 1 C0.35 2.98 -1.3 4.96 -3 7 C-3.99 6.67 -4.98 6.34 -6 6 C-4.02 4.02 -2.04 2.04 0 0 Z " fill="#7BB87B" transform="translate(449,635)"/>
<path d="M0 0 C0.66 0 1.32 0 2 0 C0.68775452 3.93673644 -0.91910327 6.22719294 -4 9 C-3.4739075 5.21213403 -2.61896089 2.82847776 0 0 Z " fill="#52AEC1" transform="translate(523,451)"/>
<path d="M0 0 C1.65 0 3.3 0 5 0 C5 0.66 5 1.32 5 2 C6.32 2 7.64 2 9 2 C9 2.99 9 3.98 9 5 C5.54074837 3.7508258 2.85306797 2.32472205 0 0 Z " fill="#D4F8FB" transform="translate(482,343)"/>
<path d="M0 0 C2.31 0.66 4.62 1.32 7 2 C7 2.66 7 3.32 7 4 C7.66 4.33 8.32 4.66 9 5 C8.01 5.495 8.01 5.495 7 6 C5.83054208 5.19152271 4.66449539 4.37810888 3.5 3.5625 C2.8503125 3.11003906 2.200625 2.65757812 1.53125 2.19140625 C1.0259375 1.79824219 0.520625 1.40507813 0 1 C0 0.67 0 0.34 0 0 Z " fill="#76B879" transform="translate(378,678)"/>
<path d="M0 0 C0.33 0.99 0.66 1.98 1 3 C0.01 3.33 -0.98 3.66 -2 4 C-3.20882096 6.00016466 -3.20882096 6.00016466 -4 8 C-4.99 8 -5.98 8 -7 8 C-4.69 5.36 -2.38 2.72 0 0 Z " fill="#E3F7E1" transform="translate(485,653)"/>
<path d="M0 0 C2.97 1.65 5.94 3.3 9 5 C8.01 5.33 7.02 5.66 6 6 C2.8125 4.1875 2.8125 4.1875 0 2 C0 1.34 0 0.68 0 0 Z " fill="#D0F7FA" transform="translate(489,392)"/>
<path d="M0 0 C-2.97 2.475 -2.97 2.475 -6 5 C-6 3.35 -6 1.7 -6 0 C-3 -1 -3 -1 0 0 Z " fill="#81BE81" transform="translate(477,663)"/>
<path d="M0 0 C0.33 0.99 0.66 1.98 1 3 C-0.8125 6.1875 -0.8125 6.1875 -3 9 C-3.66 9 -4.32 9 -5 9 C-3.7508258 5.54074837 -2.32472205 2.85306797 0 0 Z " fill="#E1F9E1" transform="translate(536,586)"/>
<path d="M0 0 C0.33 0 0.66 0 1 0 C1.3125 2.3125 1.3125 2.3125 1 5 C-1.5 6.8125 -1.5 6.8125 -4 8 C-2.87548273 5.0280615 -1.77706209 2.66559313 0 0 Z " fill="#51B1C4" transform="translate(379,359)"/>
</svg>
